<mxfile host="app.diagrams.net" modified="2021-06-22T19:08:11.997Z" agent="5.0 (Macintosh; Intel Mac OS X 10_15_7) AppleWebKit/537.36 (KHTML, like Gecko) Chrome/91.0.4472.114 Safari/537.36" etag="fHr_4xg-A0VZd2E6mutA" version="14.8.0" type="github">
  <diagram id="3MvvJBz6wv4owAFCIHYM" name="Page-1">
    <mxGraphModel dx="706" dy="686" grid="1" gridSize="10" guides="1" tooltips="1" connect="1" arrows="1" fold="1" page="1" pageScale="1" pageWidth="850" pageHeight="1100" math="0" shadow="0">
      <root>
        <mxCell id="0" />
        <mxCell id="1" parent="0" />
        <mxCell id="5v4NFAhYpby6WN-5Cood-3" value="" style="rounded=0;whiteSpace=wrap;html=1;" vertex="1" parent="1">
          <mxGeometry x="300" y="20" width="190" height="110" as="geometry" />
        </mxCell>
        <mxCell id="5v4NFAhYpby6WN-5Cood-4" value="APP&lt;br&gt;&lt;br&gt;[state]&lt;br&gt;videogames" style="text;html=1;align=center;verticalAlign=middle;resizable=0;points=[];autosize=1;strokeColor=none;" vertex="1" parent="1">
          <mxGeometry x="355" y="40" width="80" height="60" as="geometry" />
        </mxCell>
        <mxCell id="5v4NFAhYpby6WN-5Cood-6" value="" style="endArrow=none;dashed=1;html=1;entryX=0.463;entryY=0.991;entryDx=0;entryDy=0;entryPerimeter=0;" edge="1" parent="1" target="5v4NFAhYpby6WN-5Cood-3">
          <mxGeometry width="50" height="50" relative="1" as="geometry">
            <mxPoint x="120" y="170" as="sourcePoint" />
            <mxPoint x="390" y="310" as="targetPoint" />
          </mxGeometry>
        </mxCell>
        <mxCell id="5v4NFAhYpby6WN-5Cood-7" value="" style="rounded=0;whiteSpace=wrap;html=1;" vertex="1" parent="1">
          <mxGeometry x="50" y="170" width="170" height="130" as="geometry" />
        </mxCell>
        <mxCell id="5v4NFAhYpby6WN-5Cood-8" value="&lt;font style=&quot;font-size: 14px&quot;&gt;videogames.map((vg) =&amp;gt;&lt;br&gt;&amp;nbsp;&amp;lt;Link to=&#39;/detail/${id}/&amp;gt;&lt;/font&gt;" style="text;html=1;align=center;verticalAlign=middle;resizable=0;points=[];autosize=1;strokeColor=none;" vertex="1" parent="1">
          <mxGeometry x="50" y="185" width="170" height="40" as="geometry" />
        </mxCell>
        <mxCell id="5v4NFAhYpby6WN-5Cood-12" value="" style="endArrow=none;dashed=1;html=1;dashPattern=1 3;strokeWidth=2;entryX=0.5;entryY=1;entryDx=0;entryDy=0;exitX=0.453;exitY=-0.007;exitDx=0;exitDy=0;exitPerimeter=0;" edge="1" parent="1" source="5v4NFAhYpby6WN-5Cood-13" target="5v4NFAhYpby6WN-5Cood-3">
          <mxGeometry width="50" height="50" relative="1" as="geometry">
            <mxPoint x="570" y="160" as="sourcePoint" />
            <mxPoint x="390" y="300" as="targetPoint" />
          </mxGeometry>
        </mxCell>
        <mxCell id="5v4NFAhYpby6WN-5Cood-13" value="" style="rounded=0;whiteSpace=wrap;html=1;" vertex="1" parent="1">
          <mxGeometry x="550" y="170" width="170" height="150" as="geometry" />
        </mxCell>
        <mxCell id="5v4NFAhYpby6WN-5Cood-14" value="Detail&lt;br&gt;&lt;br&gt;[props]&lt;br&gt;videogames&lt;br&gt;&lt;br&gt;[params]&lt;br&gt;id" style="text;html=1;align=center;verticalAlign=middle;resizable=0;points=[];autosize=1;strokeColor=none;" vertex="1" parent="1">
          <mxGeometry x="595" y="180" width="80" height="100" as="geometry" />
        </mxCell>
        <mxCell id="5v4NFAhYpby6WN-5Cood-15" value="/detail/:id" style="text;html=1;align=center;verticalAlign=middle;resizable=0;points=[];autosize=1;strokeColor=none;rotation=15;" vertex="1" parent="1">
          <mxGeometry x="520" y="120" width="60" height="20" as="geometry" />
        </mxCell>
      </root>
    </mxGraphModel>
  </diagram>
</mxfile>
